<mxfile host="app.diagrams.net" modified="2021-03-27T02:31:56.326Z" agent="5.0 (Windows NT 10.0; Win64; x64) AppleWebKit/537.36 (KHTML, like Gecko) Chrome/89.0.4389.90 Safari/537.36" etag="G6hyfh_6tRG3WtqRoQtW" version="14.5.1" type="github" pages="4">
  <diagram id="THf9DWfrAllVLS2fdhjk" name="1_E-mails">
    <mxGraphModel dx="462" dy="761" grid="1" gridSize="10" guides="1" tooltips="1" connect="1" arrows="1" fold="1" page="1" pageScale="1" pageWidth="1169" pageHeight="827" math="0" shadow="0">
      <root>
        <mxCell id="0" />
        <mxCell id="1" parent="0" />
        <mxCell id="jGGfWXVOWTbNZ3hlvW6d-1" value="&lt;p style=&quot;margin: 0px ; margin-top: 4px ; text-align: center&quot;&gt;&lt;i&gt;&amp;lt;&amp;lt;Interface&amp;gt;&amp;gt;&lt;/i&gt;&lt;br&gt;&lt;b&gt;EmailGeralChain&lt;/b&gt;&lt;/p&gt;&lt;hr size=&quot;1&quot;&gt;&lt;p style=&quot;margin: 0px ; margin-left: 4px&quot;&gt;&lt;br&gt;&lt;/p&gt;&lt;hr size=&quot;1&quot;&gt;&lt;p style=&quot;margin: 0px ; margin-left: 4px&quot;&gt;~&amp;nbsp;void setNextChain(EmailGeralChain nextChain)&lt;/p&gt;&lt;p style=&quot;margin: 0px ; margin-left: 4px&quot;&gt;~ void dispense(PalavraChave pal)&lt;/p&gt;" style="verticalAlign=top;align=left;overflow=fill;fontSize=12;fontFamily=Helvetica;html=1;" vertex="1" parent="1">
          <mxGeometry x="480" y="90" width="280" height="140" as="geometry" />
        </mxCell>
        <mxCell id="jGGfWXVOWTbNZ3hlvW6d-2" style="edgeStyle=orthogonalEdgeStyle;rounded=0;orthogonalLoop=1;jettySize=auto;html=1;exitX=1;exitY=0.5;exitDx=0;exitDy=0;entryX=0.5;entryY=0;entryDx=0;entryDy=0;" edge="1" parent="1" source="jGGfWXVOWTbNZ3hlvW6d-1" target="jGGfWXVOWTbNZ3hlvW6d-1">
          <mxGeometry relative="1" as="geometry">
            <Array as="points">
              <mxPoint x="780" y="160" />
              <mxPoint x="780" y="40" />
              <mxPoint x="620" y="40" />
            </Array>
          </mxGeometry>
        </mxCell>
      </root>
    </mxGraphModel>
  </diagram>
  <diagram id="eOX76S7Y0mtXT3SGhpV3" name="2_Impressões">
    <mxGraphModel dx="1422" dy="762" grid="1" gridSize="10" guides="1" tooltips="1" connect="1" arrows="1" fold="1" page="1" pageScale="1" pageWidth="1169" pageHeight="827" math="0" shadow="0">
      <root>
        <mxCell id="Mytf7bnAdEDAXIpb7b2z-0" />
        <mxCell id="Mytf7bnAdEDAXIpb7b2z-1" parent="Mytf7bnAdEDAXIpb7b2z-0" />
        <mxCell id="inRHO1eajmmefQOpHFSM-7" value="&lt;p style=&quot;margin: 0px ; margin-top: 4px ; text-align: center&quot;&gt;&lt;b&gt;ImpressãoSingleton&lt;/b&gt;&lt;/p&gt;&lt;hr size=&quot;1&quot;&gt;&amp;nbsp; - ImpressãoSingleton uniqueInstance&lt;p style=&quot;margin: 0px ; margin-left: 4px&quot;&gt;&lt;br&gt;&lt;/p&gt;&lt;hr size=&quot;1&quot;&gt;&lt;p style=&quot;margin: 0px ; margin-left: 4px&quot;&gt;&amp;nbsp;- ImpressãoSingleton()&lt;br&gt;&amp;nbsp;+ synchronized ImpressãoSingleton getInstance()&lt;/p&gt;" style="verticalAlign=top;align=left;overflow=fill;fontSize=12;fontFamily=Helvetica;html=1;" vertex="1" parent="Mytf7bnAdEDAXIpb7b2z-1">
          <mxGeometry x="480" y="180" width="280" height="130" as="geometry" />
        </mxCell>
        <mxCell id="inRHO1eajmmefQOpHFSM-8" style="edgeStyle=orthogonalEdgeStyle;rounded=0;orthogonalLoop=1;jettySize=auto;html=1;exitX=1;exitY=0.5;exitDx=0;exitDy=0;entryX=0.5;entryY=1;entryDx=0;entryDy=0;" edge="1" parent="Mytf7bnAdEDAXIpb7b2z-1" source="inRHO1eajmmefQOpHFSM-7" target="inRHO1eajmmefQOpHFSM-7">
          <mxGeometry relative="1" as="geometry" />
        </mxCell>
        <mxCell id="inRHO1eajmmefQOpHFSM-9" style="edgeStyle=orthogonalEdgeStyle;rounded=0;orthogonalLoop=1;jettySize=auto;html=1;exitX=1;exitY=0.25;exitDx=0;exitDy=0;entryX=0.25;entryY=1;entryDx=0;entryDy=0;" edge="1" parent="Mytf7bnAdEDAXIpb7b2z-1" source="inRHO1eajmmefQOpHFSM-7" target="inRHO1eajmmefQOpHFSM-7">
          <mxGeometry relative="1" as="geometry">
            <Array as="points">
              <mxPoint x="770" y="220" />
              <mxPoint x="810" y="220" />
              <mxPoint x="810" y="370" />
              <mxPoint x="560" y="370" />
            </Array>
          </mxGeometry>
        </mxCell>
        <mxCell id="inRHO1eajmmefQOpHFSM-10" value="UniqueInstance" style="edgeLabel;html=1;align=center;verticalAlign=middle;resizable=0;points=[];" vertex="1" connectable="0" parent="inRHO1eajmmefQOpHFSM-9">
          <mxGeometry x="0.4233" y="-1" relative="1" as="geometry">
            <mxPoint x="33.5" as="offset" />
          </mxGeometry>
        </mxCell>
        <mxCell id="inRHO1eajmmefQOpHFSM-11" value="Exercicio 2 - fila de impressões" style="text;html=1;align=center;verticalAlign=middle;resizable=0;points=[];autosize=1;" vertex="1" parent="Mytf7bnAdEDAXIpb7b2z-1">
          <mxGeometry x="400" y="90" width="180" height="20" as="geometry" />
        </mxCell>
        <mxCell id="7KOovRXBlGtNv_IAU-2x-0" value="Para resolver esse exercicio foi utilizado o padrão de projeto singleton, a classe &quot;impressãoSingleton&quot; tem como função controlar sua propria instancia, como o constutor(impressãoSingleton() é privado&lt;br&gt;não será possivel utilizar a palavra new para instanciar sua existencia, apenas será possivel pelo metodo sincronizado getInstance(), assim garantimos que somente uma impressão será feita e se não for nula&amp;nbsp;&lt;br&gt;a instancia, será colocado na fila de impressão,&amp;nbsp;" style="text;html=1;align=center;verticalAlign=middle;resizable=0;points=[];autosize=1;" vertex="1" parent="Mytf7bnAdEDAXIpb7b2z-1">
          <mxGeometry x="20" y="389" width="1130" height="50" as="geometry" />
        </mxCell>
        <mxCell id="7KOovRXBlGtNv_IAU-2x-1" value="obs: foi utilizado a palavra sinchronized para tambem garantir que nenhuma thread paralela possa instanciar um singleton ao mesmo tempo, todas as threads precisam sincronizar para solicitar o getInstance()" style="text;html=1;align=center;verticalAlign=middle;resizable=0;points=[];autosize=1;" vertex="1" parent="Mytf7bnAdEDAXIpb7b2z-1">
          <mxGeometry x="25" y="460" width="1120" height="20" as="geometry" />
        </mxCell>
        <mxCell id="7KOovRXBlGtNv_IAU-2x-2" value="&lt;b&gt;vantagens&lt;/b&gt;&lt;br&gt;* apenas uma instancia&lt;br&gt;* substitui variáveis globais&lt;br&gt;* usa lazy instantiation ( ela é criada somente no momento do uso)" style="text;html=1;align=center;verticalAlign=middle;resizable=0;points=[];autosize=1;" vertex="1" parent="Mytf7bnAdEDAXIpb7b2z-1">
          <mxGeometry x="160" y="500" width="370" height="60" as="geometry" />
        </mxCell>
        <mxCell id="7KOovRXBlGtNv_IAU-2x-3" value="&lt;b&gt;desvantagens&lt;/b&gt;&lt;br&gt;* dificulta os testes, pois todas as classes dependentes de impressão irão acessa-la&lt;br&gt;&amp;nbsp;e uma alteração pode gerar resultados inesperados&lt;br&gt;*Viola o principio de responsabilidade única&lt;br&gt;* ela precisa de tratamento especial em caso de concorrência, utilização do sinchonized" style="text;html=1;align=center;verticalAlign=middle;resizable=0;points=[];autosize=1;" vertex="1" parent="Mytf7bnAdEDAXIpb7b2z-1">
          <mxGeometry x="570" y="500" width="480" height="80" as="geometry" />
        </mxCell>
        <mxCell id="7KOovRXBlGtNv_IAU-2x-4" value="poderia ser utilizado o padrão de projeto state que trabalha com o estado dos objetos como alternativa do singleton" style="text;html=1;align=center;verticalAlign=middle;resizable=0;points=[];autosize=1;" vertex="1" parent="Mytf7bnAdEDAXIpb7b2z-1">
          <mxGeometry x="210" y="620" width="630" height="20" as="geometry" />
        </mxCell>
      </root>
    </mxGraphModel>
  </diagram>
  <diagram id="t5bgA46i2kPyoGgze71Z" name="Page-3">
    <mxGraphModel dx="1422" dy="762" grid="1" gridSize="10" guides="1" tooltips="1" connect="1" arrows="1" fold="1" page="1" pageScale="1" pageWidth="1169" pageHeight="827" math="0" shadow="0">
      <root>
        <mxCell id="0rzKR2Agluwp4kBhpItp-0" />
        <mxCell id="0rzKR2Agluwp4kBhpItp-1" parent="0rzKR2Agluwp4kBhpItp-0" />
      </root>
    </mxGraphModel>
  </diagram>
  <diagram id="pv3TwzXgZddJM3SGXYqN" name="Page-4">
    <mxGraphModel dx="1422" dy="762" grid="1" gridSize="10" guides="1" tooltips="1" connect="1" arrows="1" fold="1" page="1" pageScale="1" pageWidth="1169" pageHeight="827" math="0" shadow="0">
      <root>
        <mxCell id="ohO272MbGY923b4xOURf-0" />
        <mxCell id="ohO272MbGY923b4xOURf-1" parent="ohO272MbGY923b4xOURf-0" />
      </root>
    </mxGraphModel>
  </diagram>
</mxfile>
